<?xml version="1.0"?>
<svg width="612" height="502.174" xmlns="http://www.w3.org/2000/svg" xmlns:svg="http://www.w3.org/2000/svg" enable-background="new 0 65.326 612 502.174" version="1.1" xml:space="preserve">
 <g class="layer">
  <title>Layer 1</title>
  <ellipse cx="282.5" cy="422.5" fill="#C6C6C6" id="svg_1" rx="259" ry="80" transform="matrix(1 0 0 1 0 0)"/>
  <path d="m212.33,2.33c-105.96,0.78 -222.68,85.31 -209.27,211.12c4.3,40.39 18.53,63.7 52.17,79.03c36.3,16.54 57.02,54.56 50.4,112.95c-9.93,4.88 -17.4,11.03 -19.13,20.02c7.53,-0.17 14.94,-0.31 22.59,4.34c20.33,12.37 31.3,27.36 42.98,51.72c1.71,3.57 8.19,2.85 8.31,-3.08c0.17,-8.47 -1.85,-17.45 -5.22,-26.93c-2.96,-8.31 3.06,-7.99 6.91,-6.11c6.4,3.12 16.34,9.43 30.39,13.1c5.4,1.41 6,-3.88 5.23,-6.99c-1.87,-7.52 -11.01,-10.86 -24.52,-19.23c-4.82,-2.98 -0.93,-9.74 5.17,-8.35l20.23,2.41c3.36,0.77 4.56,-6.11 0.88,-7.87c-14.2,-6.8 -28.89,-10.1 -53.86,-7.8c-11.62,-29.26 -29.81,-61.62 -15.68,-81.68c12.64,-17.94 31.22,-20.74 39.15,43.49c-5,3.11 -11.21,5.03 -11.33,13.02c7.2,-2.84 11.21,-1.4 14.79,0c17.91,7 35.46,21.83 52.98,37.31c3.74,3.3 8.42,-1.72 6.99,-6.03c-2.14,-6.5 -8.05,-10.66 -14.79,-20.02c-3.24,-4.49 5.03,-7.04 10.89,-6.87c13.85,0.39 22.88,8.26 35.17,11.21c4.49,1.08 9.75,-1.96 6.92,-6.91c-3.47,-6.09 -13.01,-9.13 -19.18,-13.42c-4.36,-3.03 -3.02,-7.13 2.7,-6.6c3.9,0.36 8.48,2.27 13.91,1.77c9.94,-0.93 7.71,-7.17 -0.89,-9.57c-19.03,-5.3 -39.89,-6.31 -61.66,-5.22c-43.84,-8.36 -31.56,-84.89 0,-90.37c29.57,-5.13 62.96,-13.33 99.93,-32.15c32.66,-5.43 64.83,-12.45 92.94,-33.85c48.1,-14.47 111.9,16.11 204.24,149.69c3.92,5.68 15.82,9.94 9.52,-6.35c-15.89,-41.12 -68.18,-93.33 -92.13,-132.08c-24.58,-39.78 -14.34,-61.25 -39.96,-91.25c-21.32,-24.98 -47.5,-25.8 -77.34,-17.36c-23.46,6.63 -39.23,-7.12 -52.98,-31.28c-29.36,-51.61 -81.94,-74.21 -137.45,-73.81zm235.4,137.68c6.12,0 11.11,4.92 11.11,11.04c0,6.12 -4.99,11.11 -11.11,11.11s-11.04,-5 -11.04,-11.11c0,-6.12 4.92,-11.04 11.04,-11.04z" id="bird" transform="matrix(1 0 0 1 0 0)"/>
  <circle cx="451.5" cy="152.83" fill="#FF0000" id="svg_2" r="14.42" stroke="#000000"/>
 </g>
</svg>